

<svg aria-hidden="true" style="position:absolute;width:0;height:0;overflow:hidden" xmlns="http://www.w3.org/2000/svg">
  <defs>

    <symbol id="icon-revo_logo" viewBox="0 0 95 32">
      <path d="M.254.55h94.627V32H.254V.55z"/>
    </symbol>

    <symbol id="icon-cart" viewBox="0 0 32 32">
<path fill="#415167" style="fill: var(--color1, #415167)" d="M0 10.105h20.211v20.211h-20.211v-20.211z"></path>
<path fill="#f9fbff" style="fill: var(--color2, #f9fbff)" d="M3.636 14.033h11.292c0.034 0 0.065 0.013 0.097 0.023l0.278-0.927c0.088-0.295 0.356-0.496 0.659-0.496h1.378c0.19 0 0.345 0.157 0.345 0.35v0.701c0 0.193-0.154 0.35-0.345 0.35h-0.868l-2.152 7.192 0.804 0.954c0.318 0.377 0.461 0.896 0.315 1.37-0.187 0.606-0.713 0.993-1.319 0.993h-9.87c-0.19 0-0.345-0.157-0.345-0.35v-0.701c0-0.194 0.154-0.35 0.345-0.35h9.87l-1.092-1.296c-0.027-0.033-0.048-0.069-0.068-0.106h-6.676c-0.534 0-1.020-0.314-1.247-0.805l-2.404-5.194c-0.069-0.15-0.105-0.315-0.105-0.48v-0.099c0-0.623 0.497-1.128 1.11-1.128z"></path>
<path fill="#fff" style="fill: var(--color3, #fff)" d="M13.624 27.79c-0.747 0-1.353-0.606-1.353-1.353s0.606-1.353 1.353-1.353c0.747 0 1.353 0.606 1.353 1.353s-0.606 1.353-1.353 1.353z"></path>
<path fill="#fff" style="fill: var(--color3, #fff)" d="M5.504 27.79c-0.747 0-1.353-0.606-1.353-1.353s0.606-1.353 1.353-1.353c0.747 0 1.353 0.606 1.353 1.353s-0.606 1.353-1.353 1.353z"></path>
<path fill="#c7a17a" style="fill: var(--color4, #c7a17a)" d="M21.895 18.526c4.651 0 8.421-3.77 8.421-8.421s-3.77-8.421-8.421-8.421-8.421 3.77-8.421 8.421c0 4.651 3.77 8.421 8.421 8.421z"></path>
<path fill="#f9fbff" style="fill: var(--color2, #f9fbff)" d="M20.33 14.163c-0.141 0-0.248-0.031-0.318-0.094-0.063-0.071-0.094-0.161-0.094-0.271 0-0.063 0.016-0.126 0.047-0.189s0.075-0.122 0.13-0.177l2.759-2.983c0.424-0.456 0.731-0.876 0.92-1.261 0.189-0.393 0.283-0.794 0.283-1.202 0-0.511-0.153-0.9-0.46-1.167s-0.755-0.401-1.344-0.401c-0.393 0-0.758 0.067-1.096 0.2-0.33 0.126-0.648 0.314-0.955 0.566-0.079 0.063-0.153 0.094-0.224 0.094-0.063 0-0.118-0.020-0.165-0.059-0.047-0.047-0.083-0.102-0.106-0.165-0.016-0.071-0.016-0.141 0-0.212 0.024-0.071 0.067-0.134 0.13-0.189 0.307-0.267 0.676-0.483 1.108-0.648s0.88-0.248 1.344-0.248c0.534 0 0.986 0.086 1.356 0.259 0.377 0.165 0.664 0.413 0.861 0.743s0.295 0.727 0.295 1.191c0 0.33-0.055 0.656-0.165 0.979s-0.275 0.648-0.495 0.979c-0.212 0.33-0.487 0.676-0.825 1.037l-2.653 2.806v-0.224h4.209c0.11 0 0.193 0.028 0.248 0.083 0.063 0.047 0.094 0.122 0.094 0.224 0 0.11-0.031 0.193-0.094 0.248-0.055 0.055-0.138 0.083-0.248 0.083h-4.539z"></path>
</symbol>

    <symbol id="icon-shopping-cart" viewBox="0 0 32 32">
      <path fill="#f9fbff" style="fill:var(--color1, #f9fbff)" d="M2.342 2.958h23.84c.072 0 .137.027.205.048l.586-1.958A1.456 1.456 0 0 1 28.364 0h2.909c.402 0 .727.331.727.74v1.479c0 .408-.326.74-.727.74h-1.832l-4.544 15.183 1.697 2.013c.671.796.973 1.892.664 2.892-.395 1.279-1.505 2.096-2.785 2.096H3.636a.733.733 0 0 1-.727-.74v-1.479c0-.409.326-.74.727-.74h20.837l-2.305-2.735c-.058-.069-.101-.146-.145-.223H7.93a2.907 2.907 0 0 1-2.633-1.699L.222 6.561A2.43 2.43 0 0 1 0 5.548v-.209c0-1.315 1.049-2.382 2.342-2.382z"/>
      <path fill="#fff" style="fill:var(--color2, #fff)" d="M23.429 32a2.857 2.857 0 1 1 0-5.714 2.857 2.857 0 0 1 0 5.714zM6.286 32a2.857 2.857 0 1 1 0-5.714 2.857 2.857 0 0 1 0 5.714z"/>
    </symbol>

    <symbol id="icon-2" viewBox="0 0 20 32">
      <path fill="#f9fbff" style="fill:var(--color1, #f9fbff)" d="M3.321 31.471c-.489 0-.855-.108-1.1-.326-.217-.244-.326-.556-.326-.937 0-.217.054-.434.163-.652s.258-.421.448-.611l9.53-10.304c1.466-1.575 2.525-3.027 3.177-4.358.652-1.358.977-2.742.977-4.154 0-1.765-.529-3.109-1.588-4.032s-2.607-1.385-4.643-1.385c-1.358 0-2.62.231-3.788.692-1.14.434-2.24 1.086-3.299 1.955-.272.217-.529.326-.774.326a.863.863 0 0 1-.57-.204 1.592 1.592 0 0 1-.367-.57 1.679 1.679 0 0 1 0-.733c.081-.244.231-.462.448-.652 1.059-.923 2.335-1.67 3.828-2.24s3.041-.855 4.643-.855c1.846 0 3.408.299 4.684.896 1.303.57 2.294 1.425 2.973 2.566s1.018 2.512 1.018 4.113c0 1.14-.19 2.267-.57 3.38s-.95 2.24-1.711 3.38c-.733 1.14-1.683 2.335-2.851 3.584l-9.164 9.693v-.774h14.54c.38 0 .665.095.855.285.217.163.326.421.326.774 0 .38-.109.665-.326.855-.19.19-.475.285-.855.285H3.319z"/>
    </symbol>

    <symbol id="icon-nguon-goc" viewBox="0 0 31 32">
      <path fill="#c7a17a" style="fill:var(--color3, #c7a17a)" d="M8.572 12.778c0-1.467 1.126-2.656 2.513-2.656H.529v4.25l8.551-.008a2.727 2.727 0 0 1-.508-1.585zM19.631 9.591H30.69v5.313H19.631V9.591z"/>
      <path fill="#232c38" style="fill:var(--color4, #232c38)" d="M21.988 3.566C20.648 1.443 18.293.027 15.61.027s-5.038 1.416-6.378 3.539H0v27.808h31.22V3.566h-9.232zM15.61 1.038c3.609 0 6.546 2.949 6.546 6.573v1.011h8.057v8.09H18.452a4.55 4.55 0 0 0 1.69-3.539v-4.55h-9.064v1.011c-1.666 0-3.021 1.361-3.021 3.034s1.355 3.034 3.021 3.034h.766a4.6 4.6 0 0 0 .923 1.011H1.006v-8.09h8.057V7.612c0-3.624 2.937-6.573 6.546-6.573zm-5.539 16.685h11.078v2.022H10.071v-2.022zm2.014-4.55V9.634h7.05v3.539c0 1.952-1.581 3.539-3.525 3.539s-3.525-1.588-3.525-3.539zm-1.007 1.516c-1.111 0-2.014-.907-2.014-2.022s.903-2.022 2.014-2.022v2.528c0 .532.096 1.042.264 1.517h-.264zM1.007 6.6h5.035V5.589H1.007V4.578h7.685a7.605 7.605 0 0 0-.354 1.011H7.05V6.6h1.082a7.66 7.66 0 0 0-.075 1.011h-7.05V6.6zm0 11.123h8.057v12.64H1.007v-12.64zm9.064 3.034h5.035v9.606h-5.035v-9.606zm6.042 0h5.035v9.606h-5.035v-9.606zm14.099 9.606h-8.057v-12.64h8.057v12.64zM23.088 6.6h1.082V5.589h-1.288a7.555 7.555 0 0 0-.354-1.011h7.685v1.011h-5.035V6.6h5.035v1.011h-7.05a7.66 7.66 0 0 0-.075-1.011z"/>
      <path fill="#232c38" style="fill:var(--color4, #232c38)" d="M16.113 7.611h1.007v-.892c0-.505.279-.958.729-1.184a2.323 2.323 0 0 0 1.286-2.088v-.892h-1.007v.892c0 .505-.279.958-.729 1.184a2.323 2.323 0 0 0-1.286 2.088v.892zM14.099 6.719c0-.505.28-.958.729-1.184a2.323 2.323 0 0 0 1.286-2.088v-.892h-1.007v.892c0 .505-.28.958-.729 1.184a2.323 2.323 0 0 0-1.286 2.088v.892h1.007v-.892zM13.092 23.79h1.007v2.022h-1.007V23.79zM17.12 23.79h1.007v2.022H17.12V23.79z"/>
    </symbol>

    <symbol id="icon-chat-uong" viewBox="0 0 32 32">
      <path fill="#c7a17a" style="fill:var(--color3, #c7a17a)" d="M27.718 18.693a3.577 3.577 0 0 1-3.229 2.028v-2.028H7.111v2.028a3.577 3.577 0 0 1-3.229-2.028H2v11.155h27.6V18.693h-1.882z"/>
      <path fill="#232c38" style="fill:var(--color4, #232c38)" d="M28.485 16.579h1.526c.841 0 1.526.682 1.526 1.52v12.159c0 .838-.685 1.52-1.526 1.52H1.526A1.525 1.525 0 0 1 0 30.258V18.1c0-.838.685-1.52 1.526-1.52h1.526v-.507c0-1.649 1.032-3.129 2.543-3.744v-1.632c-1.511-.615-2.543-2.095-2.543-3.744v-.507C1.369 6.446 0 5.083 0 3.406S1.369.366 3.052.366h25.433c1.683 0 3.052 1.363 3.052 3.04s-1.369 3.04-3.052 3.04v.507c0 1.649-1.032 3.13-2.543 3.744v1.631c1.511.615 2.543 2.095 2.543 3.744v.507zm-3.561 3.504a3.048 3.048 0 0 0 2.543-2.998v-1.013a3.052 3.052 0 0 0-1.526-2.621v.594c0 .203-.042.396-.114.573.388.374.623.893.623 1.453v1.013c0 .943-.65 1.737-1.526 1.963v1.035zM8.139 6.447H6.104v.507c0 .118.025.233.065.341.262-.21.591-.341.952-.341s.69.131.952.341a.988.988 0 0 0 .065-.341v-.507zM6.613 8.473v5.573a.509.509 0 0 0 1.018 0V8.473a.509.509 0 0 0-1.018 0zm2.017-.177.007.051a.88.88 0 0 1 .011.126v1.101a3.05 3.05 0 0 0 1.526-2.621v-.507H9.157v.507c0 .499-.195.974-.526 1.343zm-2.231 7.08a1.003 1.003 0 0 0-.295.696v.507h2.035v-.507a.999.999 0 0 0-.295-.696c-.216.117-.46.189-.723.189s-.507-.072-.723-.189zm2.134-.757c.388.374.623.893.623 1.453v.507h1.017v-.507a3.053 3.053 0 0 0-1.526-2.621v.594c0 .203-.042.396-.114.573zm.114-3.922v1.631c1.511.615 2.543 2.095 2.543 3.744v.507h9.156v-.507c0-1.649 1.032-3.13 2.543-3.744v-1.632c-1.511-.615-2.543-2.095-2.543-3.744v-.507H11.19v.507c0 1.649-1.032 3.129-2.543 3.744zm15.26 3.349a.509.509 0 0 0 1.018 0V8.473a.509.509 0 0 0-1.018 0v5.573zm1.461-6.751a.988.988 0 0 0 .065-.341v-.507h-2.035v.507c0 .118.025.233.065.341.262-.21.591-.341.952-.341s.69.131.952.341zm-2.461 1.001a2.015 2.015 0 0 1-.526-1.343v-.507h-1.017v.507c0 1.092.605 2.084 1.526 2.621V8.473c0-.045.006-.089.012-.133l.006-.044zm-.017 5.155a3.05 3.05 0 0 0-1.526 2.621v.507h1.017v-.507c0-.56.235-1.079.623-1.453a1.498 1.498 0 0 1-.114-.573v-.594zm.508 2.621v.507h2.035v-.507c0-.268-.115-.511-.294-.696-.216.117-.46.189-.723.189s-.507-.072-.723-.189a1.003 1.003 0 0 0-.295.696zm2.544-6.498a3.05 3.05 0 0 0 1.526-2.621V5.94a3.05 3.05 0 0 0-2.543-2.998v1.035a2.033 2.033 0 0 1 1.526 1.963v1.013c0 .5-.195.974-.526 1.343l.006.05a.88.88 0 0 1 .011.126v1.101zM1.018 3.407c0 1.118.913 2.026 2.035 2.026h.035a4.067 4.067 0 0 1 4.034-3.546h.509v3.04h-.509c-.375 0-.699.205-.876.507h19.046a1.015 1.015 0 0 0-.876-.507h-.509v-3.04h.509a4.067 4.067 0 0 1 4.034 3.546h.035c1.122 0 2.035-.909 2.035-2.026s-.913-2.026-2.035-2.026H3.052a2.033 2.033 0 0 0-2.035 2.026zm3.051 3.04v.507c0 1.092.605 2.085 1.526 2.621V8.474c0-.045.006-.088.012-.132l.006-.044a2.019 2.019 0 0 1-.526-1.343V5.942c0-.943.65-1.737 1.526-1.963V2.944A3.048 3.048 0 0 0 4.07 5.942v.507zm0 9.625v1.013a3.05 3.05 0 0 0 2.543 2.998v-1.035a2.033 2.033 0 0 1-1.526-1.963v-1.013c0-.56.236-1.079.623-1.453a1.498 1.498 0 0 1-.114-.573v-.594a3.05 3.05 0 0 0-1.526 2.621zm25.942 14.691c.28 0 .509-.227.509-.507V18.098a.509.509 0 0 0-.509-.507H28.45a4.067 4.067 0 0 1-4.034 3.546h-.509v-3.04h.509c.375 0 .699-.205.876-.507H6.246c.177.301.501.507.876.507h.509v3.04h-.509a4.067 4.067 0 0 1-4.034-3.546H1.527a.509.509 0 0 0-.509.507v12.158c0 .279.228.507.509.507h28.485z"/>
      <path fill="#232c38" style="fill:var(--color4, #232c38)" d="M16.592 20.401v.002h.002l-.002-.002z"/>
      <path fill="#232c38" style="fill:var(--color4, #232c38)" d="m16.676 20.49.057.061c2.062-1.198 4.506-1.082 5.97.336.777.753 1.204 1.803 1.204 2.955 0 1.467-.678 2.966-1.859 4.11-1.218 1.181-2.772 1.79-4.222 1.79-1.144 0-2.225-.379-3.027-1.157l.002-.003a4.89 4.89 0 0 1-.582.038c-1.451 0-3.004-.609-4.222-1.79-1.181-1.145-1.859-2.644-1.859-4.111 0-1.153.428-2.202 1.204-2.955 1.818-1.763 5.07-1.478 7.249.634.03.029.057.059.085.089zm-.794.637c-1.024-.993-2.321-1.511-3.51-1.511-.7 0-1.357.187-1.905.553l6.391 6.196c.375-.516.575-1.146.575-1.854 0-1.196-.565-2.429-1.55-3.385zm-5.176 4.98c-.986-.955-1.55-2.189-1.55-3.385 0-.708.199-1.338.575-1.853l6.393 6.198c-1.478.99-3.789.618-5.418-.96zm5.328 2.155c1.481.898 3.718.504 5.305-1.034.986-.955 1.551-2.189 1.55-3.385 0-.708-.199-1.338-.575-1.854l-.773.749-.71-.726.745-.722c-1.117-.744-2.731-.72-4.177.059.638.913 1.002 1.951 1.04 2.982l1.785-1.731.71.726-2.742 2.658a3.895 3.895 0 0 1-.947 1.481 3.947 3.947 0 0 1-1.212.795zM9.665 2.394h10.173v1.013H9.665V2.394zM20.855 2.394h1.017v1.013h-1.017V2.394z"/>
    </symbol>

    <symbol id="icon-cac-loai-at" viewBox="0 0 31 32">
      <path fill="#c7a17a" style="fill:var(--color3, #c7a17a)" d="M.78 19.184h16.086v10.231H.78V19.184z"/>
      <path fill="#c7a17a" style="fill:var(--color3, #c7a17a)" d="M16.866 22.253h13.573V10.999H15.358v3.069h1.508v8.185z"/>
      <path fill="#151d28" style="fill:var(--color5, #151d28)" d="M31.22 3.566c0 .446-.197.844-.504 1.122v22.024c.307.278.504.676.504 1.122v2.022c0 .836-.678 1.517-1.511 1.517H15.106v-.051a2.534 2.534 0 0 1-.504.051H2.517a2.526 2.526 0 0 1-2.518-2.528V14.688c0-.836.678-1.517 1.511-1.517h13.092V4.687a1.51 1.51 0 0 1-.504-1.122V1.543c0-.836.678-1.517 1.511-1.517h14.099c.833 0 1.511.681 1.511 1.517v2.022zm-1.008-2.022a.506.506 0 0 0-.504-.506h-2.014v3.034h2.014a.506.506 0 0 0 .504-.506V1.544zm-11.581-.506v3.034h2.014V1.038h-2.014zm3.021 0v3.034h2.014V1.038h-2.014zm5.036 0h-2.014v3.034h2.014V1.038zm-11.582.506v2.022c0 .279.226.506.504.506h2.014V1.038H15.61a.506.506 0 0 0-.504.506zM1.007 28.846c0 .836.678 1.517 1.511 1.517h12.085c.833 0 1.511-.68 1.511-1.517V17.217h-1.007v-1.011h1.007v-1.517a.506.506 0 0 0-.504-.506H1.511a.506.506 0 0 0-.504.506v1.517h13.092v1.011H1.007v11.629zm29.205 1.011v-2.022a.506.506 0 0 0-.504-.506H17.12v1.517a2.51 2.51 0 0 1-.517 1.517h13.105a.506.506 0 0 0 .504-.506zM17.12 26.318h12.588V5.083H15.609v8.09c.833 0 1.511.681 1.511 1.517v11.629z"/>
      <path fill="#151d28" style="fill:var(--color5, #151d28)" d="M21.666 20.244c1.163 0 2.446-.535 3.464-1.557 1.751-1.758 2.068-4.302.705-5.67s-3.895-1.051-5.646.708c-1.751 1.758-2.067 4.302-.705 5.669.57.573 1.345.85 2.182.85zm2.752-2.272c-1.187 1.192-2.785 1.585-3.815 1.014l4.825-4.845c.568 1.035.177 2.639-1.01 3.831zm-.772-4.804c-.895 0-1.919.442-2.746 1.273-1.187 1.193-1.578 2.796-1.01 3.831l4.819-4.839a2.182 2.182 0 0 0-1.064-.264zM6.089 21.309c-1.751 1.758-2.068 4.302-.705 5.67.57.573 1.345.85 2.182.85 1.163 0 2.446-.535 3.464-1.557 1.751-1.758 2.068-4.302.705-5.67-1.362-1.369-3.895-1.051-5.646.707zm.712.715c.827-.83 1.851-1.272 2.746-1.272.39 0 .751.091 1.063.264l-4.819 4.839c-.568-1.035-.177-2.639 1.01-3.831zm-.297 4.546c1.031.571 2.628.178 3.815-1.014s1.578-2.796 1.01-3.831L6.504 26.57z"/>
    </symbol>

    <symbol id="icon-pha-che" viewBox="0 0 29 32">
      <path fill="#c7a17a" style="fill:var(--color3, #c7a17a)" d="M3.512 7.08v.295c0 2.258 1.172 4.361 3.111 5.582h9.778c1.939-1.221 3.111-3.324 3.111-5.582V7.08h-16z"/>
      <path fill="#151d28" style="fill:var(--color5, #151d28)" d="M26.247.027H3.084C1.418.027.063 1.388.063 3.061s1.355 3.034 3.021 3.034v1.316c0 2.047.834 3.96 2.28 5.335a1.764 1.764 0 0 0-1.273 1.692c0 .756.478 1.399 1.145 1.651a1.498 1.498 0 0 0-.137.624v.142l-1.3.435a2.523 2.523 0 0 0-1.721 2.398v3.152c0 1.09.692 2.054 1.722 2.399l1.423.475c.166.623.494 1.179.94 1.617H2.079c-1.111 0-2.014.907-2.014 2.022s.903 2.022 2.014 2.022h25.177V5.919A3.035 3.035 0 0 0 26.249.028zM15.169 1.544a.506.506 0 0 1-.504.506H9.63a.506.506 0 0 1 0-1.012h5.035c.277 0 .504.227.504.506zM1.07 3.061a2.02 2.02 0 0 1 2.014-2.022h5.128a1.519 1.519 0 0 0-.093.506c0 .836.678 1.517 1.511 1.517h5.035c.833 0 1.511-.681 1.511-1.517 0-.178-.036-.347-.093-.506h5.128c1.111 0 2.014.907 2.014 2.022s-.903 2.022-2.014 2.022H3.084A2.02 2.02 0 0 1 1.07 3.061zm20.141 10.112v-2.022h2.014v2.022h-2.014zm0 4.044h2.014v2.022h-2.014v-2.022zm0-1.011v-2.022h2.014v2.022h-2.014zm-1.007-6.067v10.112h3.021v7.078h-6.098a3.533 3.533 0 0 0 1.063-2.528v-8.09c0-.223-.051-.433-.137-.624a1.768 1.768 0 0 0 1.145-1.651c0-.804-.54-1.477-1.273-1.692a7.339 7.339 0 0 0 2.28-5.335V6.093h3.021v4.045h-3.021zM19.197 7.41a6.32 6.32 0 0 1-2.793 5.257H9.126V11.15a2.525 2.525 0 0 0-2.518-2.528h-2.39a6.413 6.413 0 0 1-.127-1.212V6.094h15.106V7.41zM4.495 9.633h2.114c.833 0 1.511.681 1.511 1.517v1.517H6.885a6.305 6.305 0 0 1-2.389-3.034zm12.94 4.045a.758.758 0 0 1 0 1.516H5.854a.758.758 0 0 1 0-1.516h11.581zm-14.351 9.16v-3.152c0-.654.415-1.232 1.033-1.439l.981-.328v6.688l-.981-.328a1.517 1.517 0 0 1-1.033-1.44zm3.021-6.126c0-.279.226-.506.504-.506H16.68c.277 0 .504.227.504.506v8.09a2.525 2.525 0 0 1-2.518 2.528H8.623a2.526 2.526 0 0 1-2.518-2.528v-8.09zm20.142 13.651H2.077a1.01 1.01 0 0 1 0-2.022h22.156V6.095h2.014v24.269zm-2.79-25.28a3.026 3.026 0 0 0 0-4.044h2.79c1.111 0 2.014.907 2.014 2.022s-.903 2.022-2.014 2.022h-2.79z"/>
      <path fill="#333" style="fill:var(--color6, #333)" d="M15.169 17.217h1.007v1.011h-1.007v-1.011zM7.112 17.217h7.05v1.011h-7.05v-1.011z"/>
    </symbol>

    <symbol id="icon-coffee-beans" viewBox="0 0 31 32">
      <path fill="#415167" style="fill:var(--color7, #415167)" d="M10.66 22.5c-2.666-4.538-2.672-9.255-2.401-11.45-6.245 2.972-9.982 9.352-7.467 15.07 2.962.295 7.114-.603 9.868-3.62z"/>
      <path fill="#415167" style="fill:var(--color7, #415167)" d="M11.347 23.598c-2.432 2.58-6.61 4.037-9.799 3.845 2.911 4.204 10.656 6.053 17.632 1.996-2.987-.725-5.804-2.843-7.833-5.841z"/>
      <path fill="#415167" style="fill:var(--color7, #415167)" d="M18.645 14.175C14.473 9.554 14.127 5.144 14.7 2.25c-4.31 2.471-6.415 8.806-4.726 15.263 1.884 7.381 8.583 12.965 14.866 10.154.195-2.073-.063-6.727-6.194-13.492z"/>
      <path fill="#415167" style="fill:var(--color7, #415167)" d="M30.252 12.076C28.336 4.72 21.94-.363 16.118 1.601c-.851 2.766-.731 7.214 3.478 11.746 1.909 2.246 6.629 7.567 6.541 13.594 3.869-2.721 5.678-8.729 4.115-14.865z"/>
    </symbol>

    <symbol id="icon-mountain" viewBox="0 0 37 32">
      <path fill="#415167" style="fill:var(--color7, #415167)" d="M17.255 1.716c-.197-.341-.625-.507-.952-.541a1.077 1.077 0 0 0-.934.574L11.54 8.918l2.008 2.302 1.857-2.995c.395-.636 1.438-.636 1.833 0l1.857 2.995 2.181-2.558-4.02-6.946z"/>
      <path fill="#415167" style="fill:var(--color7, #415167)" d="m23.077 11.811-.636-1.1-2.562 3.112c-.211.292-.518.483-.913.446a1.079 1.079 0 0 1-.877-.512l-1.788-2.888-1.788 2.888c-.19.307-.519.499-.877.512l-.04.001c-.345 0-.669-.165-.873-.447l-2.332-2.793L.128 30.137c-.18.338-.171.748.024 1.077.195.331.548.532.929.532h12.184a3.294 3.294 0 0 1 .209-2.702l9.602-17.233zM27.016 12.681c-.384-.687-1.509-.687-1.893 0l-2.262 4.041 3.209 3.524 3.209-3.524-2.263-4.041z"/>
      <path fill="#415167" style="fill:var(--color7, #415167)" d="m36.783 30.12-6.431-11.403-3.487 3.908c-.206.248-.51.392-.831.392s-.625-.144-.831-.392l-3.487-3.908-6.359 11.403c-.189.338-.186.751.008 1.086s.549.54.934.54h19.543c.385 0 .739-.206.934-.54s.198-.748.008-1.086z"/>
    </symbol>

     <symbol id="icon-btn_right" viewBox="0 0 32 32">
      <path fill="#c7a17a" style="fill:var(--color1, #c7a17a)" d="M16 27.294c6.238 0 11.294-5.057 11.294-11.294S22.237 4.706 16 4.706C9.762 4.706 4.706 9.763 4.706 16S9.763 27.294 16 27.294z"/>
      <path fill="#f9fbff" style="fill:var(--color2, #f9fbff)" d="M17.958 11.885a.397.397 0 0 0-.569 0 .407.407 0 0 0 0 .568l2.886 2.907h-9.524c-.222 0-.398.178-.398.402s.176.407.398.407h9.524l-2.886 2.902a.413.413 0 0 0 0 .573c.159.16.416.16.569 0l3.569-3.596a.398.398 0 0 0 0-.568l-3.569-3.596z"/>
    </symbol>
    
  </defs>
</svg>